# Rhino

mtllib 測試.mtl
usemtl diffuse_ControlText
v -183.77072143554688 0 84.170692443847656
v -183.77072143554688 0 -100
v 100 0 84.170692443847656
v 100 0 -100
v 100 0 84.170692443847656
v 100 10 84.170692443847656
v -183.77072143554688 0 84.170692443847656
v -183.77072143554688 10 84.170692443847656
v 100 0 -100
v 100 10 -100
v 100 0 84.170692443847656
v 100 10 84.170692443847656
v 100 10 -28.108396530151367
v 100 10 -80.876304626464844
v -183.77072143554688 0 -100
v -183.77072143554688 10 -100
v 100 0 -100
v 100 10 -100
v -183.77072143554688 0 84.170692443847656
v -183.77072143554688 10 84.170692443847656
v -183.77072143554688 0 -100
v -183.77072143554688 10 -100
v -183.77072143554688 10 -37.351181030273438
v -183.77072143554688 10 21.979986190795898
v 100 10 84.170692443847656
v 100 110 84.170692443847656
v -183.77072143554688 10 84.170692443847656
v -183.77072143554688 110 84.170692443847656
v -183.77072143554688 10 -100
v -183.77072143554688 110 -100
v 100 10 -100
v 100 110 -100
v -183.77072143554688 10 84.170692443847656
v -183.77072143554688 110 84.170692443847656
v -183.77072143554688 10 -100
v -183.77072143554688 110 -100
v -183.77072143554688 10 -37.351181030273438
v -183.77072143554688 10 21.979986190795898
v -183.77072143554688 80 21.979986190795898
v -183.77072143554688 80 -37.351181030273438
v -173.77072143554688 10 -90
v -173.77072143554688 110 -90
v -173.77072143554688 10 74.170692443847656
v -173.77072143554688 110 74.170692443847656
v -173.77072143554688 10 -37.351181030273438
v -173.77072143554688 80 21.979986190795898
v -173.77072143554688 10 21.979986190795898
v -173.77072143554688 80 -37.351181030273438
v 90 10 -90
v 90 110 -90
v -173.77072143554688 10 -90
v -173.77072143554688 110 -90
v 90 10 74.170692443847656
v 90 110 74.170692443847656
v 90 10 -90
v 90 110 -90
v 90 10 -28.108396530151367
v 90 80 -28.108396530151367
v 90 80 -80.876304626464844
v 90 10 -80.876304626464844
v -173.77072143554688 10 74.170692443847656
v -173.77072143554688 110 74.170692443847656
v 90 10 74.170692443847656
v 90 110 74.170692443847656
v -183.77072143554688 110 84.170692443847656
v -183.77072143554688 110 -100
v 100 110 84.170692443847656
v 100 110 -100
v -173.77072143554688 110 74.170692443847656
v -173.77072143554688 110 -90
v 90 110 -90
v 90 110 74.170692443847656
v -173.77072143554688 10 74.170692443847656
v 90 10 74.170692443847656
v 90 10 -90
v -173.77072143554688 10 -90
v 90 10 -28.108396530151367
v -173.77072143554688 10 21.979986190795898
v -173.77072143554688 10 -37.351181030273438
v 90 10 -80.876304626464844
v -183.77072143554688 10 21.979986190795898
v -183.77072143554688 10 -37.351181030273438
v -173.77072143554688 10 21.979986190795898
v -173.77072143554688 10 -37.351181030273438
v -173.77072143554688 10 21.979986190795898
v -173.77072143554688 80 21.979986190795898
v -183.77072143554688 10 21.979986190795898
v -183.77072143554688 80 21.979986190795898
v -183.77072143554688 10 -37.351181030273438
v -183.77072143554688 80 -37.351181030273438
v -173.77072143554688 10 -37.351181030273438
v -173.77072143554688 80 -37.351181030273438
v -183.77072143554688 80 21.979986190795898
v -183.77072143554688 80 -37.351181030273438
v -173.77072143554688 80 21.979986190795898
v -173.77072143554688 80 -37.351181030273438
v 90 10 -28.108396530151367
v 90 10 -80.876304626464844
v 100 10 -28.108396530151367
v 100 10 -80.876304626464844
v 100 10 -28.108396530151367
v 100 80 -28.108396530151367
v 90 10 -28.108396530151367
v 90 80 -28.108396530151367
v 90 10 -80.876304626464844
v 90 80 -80.876304626464844
v 100 10 -80.876304626464844
v 100 80 -80.876304626464844
v 90 80 -28.108396530151367
v 90 80 -80.876304626464844
v 100 80 -28.108396530151367
v 100 80 -80.876304626464844
v 100 10 -100
v 100 110 -100
v 100 10 84.170692443847656
v 100 110 84.170692443847656
v 100 10 -28.108396530151367
v 100 80 -28.108396530151367
v 100 80 -80.876304626464844
v 100 10 -80.876304626464844
vt 0.9775206446647644 0
vt 0.71597796678543091 0
vt 0.9775206446647644 0.40152084827423096
vt 0.71597796678543091 0.40152084827423096
vt 0.055339563637971878 0.38857078552246094
vt 0.042603306472301483 0.38857078552246094
vt 0.055339563637971878 0.79155647754669189
vt 0.042603306472301483 0.79155647754669189
vt 0.026937359943985939 0.38857078552246094
vt 0.01420110184699297 0.38857078552246094
vt 0.026937359943985939 0.65011346340179443
vt 0.01420110184699297 0.65011346340179443
vt 0.01420110184699297 0.4906647801399231
vt 0.01420110184699297 0.41572853922843933
vt 0.041138462722301483 0.38857078552246094
vt 0.028402203693985939 0.38857078552246094
vt 0.041138462722301483 0.79155647754669189
vt 0.028402203693985939 0.79155647754669189
vt 0.01273625809699297 0.38857078552246094
vt 0 0.38857078552246094
vt 0.01273625809699297 0.65011346340179443
vt 0 0.65011346340179443
vt 0 0.56114524602890015
vt 0 0.47688844799995422
vt 0 0
vt 0 0.14201101660728455
vt 0.40298569202423096 0
vt 0.40298569202423096 0.14201101660728455
vt 0.99853515625 0.40298569202423096
vt 0.85798895359039307 0.40298569202423096
vt 0.99853515625 0.80450654029846191
vt 0.85798895359039307 0.80450654029846191
vt 0.71451312303543091 0.51397013664245605
vt 0.57396692037582397 0.51397013664245605
vt 0.71451312303543091 0.77551287412643433
vt 0.57396692037582397 0.77551287412643433
vt 0.71451312303543091 0.68654459714889526
vt 0.71451312303543091 0.60228782892227173
vt 0.6161307692527771 0.60228782892227173
vt 0.6161307692527771 0.68654459714889526
vt 0.35798898339271545 0.14709079265594482
vt 0.21597795188426971 0.14709079265594482
vt 0.35798898339271545 0.38023129105567932
vt 0.21597795188426971 0.38023129105567932
vt 0.35798898339271545 0.22185792028903961
vt 0.2585812509059906 0.30611473321914673
vt 0.35798898339271545 0.30611473321914673
vt 0.2585812509059906 0.22185792028903961
vt 0.19735059142112732 0.38857078552246094
vt 0.056804407387971878 0.38857078552246094
vt 0.19735059142112732 0.76315426826477051
vt 0.056804407387971878 0.76315426826477051
vt 0.14201101660728455 0.14709079265594482
vt 0 0.14709079265594482
vt 0.14201101660728455 0.38023129105567932
vt 0 0.38023129105567932
vt 0.14201101660728455 0.29233837127685547
vt 0.042603306472301483 0.29233837127685547
vt 0.042603306472301483 0.36727464199066162
vt 0.14201101660728455 0.36727464199066162
vt 0.85652410984039307 0.40298569202423096
vt 0.71597796678543091 0.40298569202423096
vt 0.85652410984039307 0.77756917476654053
vt 0.71597796678543091 0.77756917476654053
vt 0.69349861145019531 0
vt 0.43195590376853943 0
vt 0.69349861145019531 0.40152084827423096
vt 0.43195590376853943 0.40152084827423096
vt 0.67929750680923462 0.014149482361972332
vt 0.44615700840950012 0.014149482361972332
vt 0.44615700840950012 0.38737139105796814
vt 0.67929750680923462 0.38737139105796814
vt 0.43049106001853943 0.38857078552246094
vt 0.43049106001853943 0.76315426826477051
vt 0.19881543517112732 0.76315426826477051
vt 0.19881543517112732 0.38857078552246094
vt 0.28615608811378479 0.76315426826477051
vt 0.35684019327163696 0.38857078552246094
vt 0.27311277389526367 0.38857078552246094
vt 0.21169066429138184 0.76315426826477051
vt 0.53846418857574463 0.40298569202423096
vt 0.53846418857574463 0.48724249005317688
vt 0.55266529321670532 0.40298569202423096
vt 0.55266529321670532 0.48724249005317688
vt 0.6094697117805481 0.40298569202423096
vt 0.6094697117805481 0.50239342451095581
vt 0.62367081642150879 0.40298569202423096
vt 0.62367081642150879 0.50239342451095581
vt 0.57396692037582397 0.40298569202423096
vt 0.57396692037582397 0.50239342451095581
vt 0.58816802501678467 0.40298569202423096
vt 0.58816802501678467 0.50239342451095581
vt 0.50296139717102051 0.40298569202423096
vt 0.50296139717102051 0.48724249005317688
vt 0.5171625018119812 0.40298569202423096
vt 0.5171625018119812 0.48724249005317688
vt 0.46745866537094116 0.40298569202423096
vt 0.46745866537094116 0.47792196273803711
vt 0.48165977001190186 0.40298569202423096
vt 0.48165977001190186 0.47792196273803711
vt 0.68047517538070679 0.40298569202423096
vt 0.68047517538070679 0.50239342451095581
vt 0.69467628002166748 0.40298569202423096
vt 0.69467628002166748 0.50239342451095581
vt 0.64497244358062744 0.40298569202423096
vt 0.64497244358062744 0.50239342451095581
vt 0.65917354822158813 0.40298569202423096
vt 0.65917354822158813 0.50239342451095581
vt 0.43195590376853943 0.40298569202423096
vt 0.43195590376853943 0.47792196273803711
vt 0.44615700840950012 0.40298569202423096
vt 0.44615700840950012 0.47792196273803711
vt 0.57250207662582397 0.51397013664245605
vt 0.43195590376853943 0.51397013664245605
vt 0.57250207662582397 0.77551287412643433
vt 0.43195590376853943 0.77551287412643433
vt 0.57250207662582397 0.61606419086456299
vt 0.47411975264549255 0.61606419086456299
vt 0.47411975264549255 0.54112792015075684
vt 0.57250207662582397 0.54112792015075684
vn 0 -1 0
vn 0 -1 0
vn 0 -1 0
vn 0 -1 0
vn 0 0 1
vn 0 0 1
vn 0 0 1
vn 0 0 1
vn 1 0 0
vn 1 0 0
vn 1 0 0
vn 1 0 0
vn 1 0 0
vn 1 0 0
vn 0 0 -1
vn 0 0 -1
vn 0 0 -1
vn 0 0 -1
vn -1 0 0
vn -1 0 0
vn -1 0 0
vn -1 0 0
vn -1 0 0
vn -1 0 0
vn 0 0 1
vn 0 0 1
vn 0 0 1
vn 0 0 1
vn 0 0 -1
vn 0 0 -1
vn 0 0 -1
vn 0 0 -1
vn -1 0 0
vn -1 0 0
vn -1 0 0
vn -1 0 0
vn -1 0 0
vn -1 0 0
vn -1 0 0
vn -1 0 0
vn 1 0 0
vn 1 0 0
vn 1 0 0
vn 1 0 0
vn 1 0 0
vn 1 0 0
vn 1 0 0
vn 1 0 0
vn 0 0 1
vn 0 0 1
vn 0 0 1
vn 0 0 1
vn -1 0 0
vn -1 0 0
vn -1 0 0
vn -1 0 0
vn -1 0 0
vn -1 0 0
vn -1 0 0
vn -1 0 0
vn 0 0 -1
vn 0 0 -1
vn 0 0 -1
vn 0 0 -1
vn 0 1 0
vn 0 1 0
vn 0 1 0
vn 0 1 0
vn 0 1 0
vn 0 1 0
vn 0 1 0
vn 0 1 0
vn 0 1 0
vn 0 1 0
vn 0 1 0
vn 0 1 0
vn 0 1 0
vn 0 1 0
vn 0 1 0
vn 0 1 0
vn 0 1 0
vn 0 1 0
vn 0 1 0
vn 0 1 0
vn 0 0 -1
vn 0 0 -1
vn 0 0 -1
vn 0 0 -1
vn 0 0 1
vn 0 0 1
vn 0 0 1
vn 0 0 1
vn 0 -1 0
vn 0 -1 0
vn 0 -1 0
vn 0 -1 0
vn 0 1 0
vn 0 1 0
vn 0 1 0
vn 0 1 0
vn 0 0 -1
vn 0 0 -1
vn 0 0 -1
vn 0 0 -1
vn 0 0 1
vn 0 0 1
vn 0 0 1
vn 0 0 1
vn 0 -1 0
vn 0 -1 0
vn 0 -1 0
vn 0 -1 0
vn 1 0 0
vn 1 0 0
vn 1 0 0
vn 1 0 0
vn 1 0 0
vn 1 0 0
vn 1 0 0
vn 1 0 0
f 2/2/2 4/4/4 3/3/3 1/1/1
f 6/6/6 8/8/8 7/7/7 5/5/5
f 10/10/10 14/14/14 9/9/9
f 13/13/13 9/9/9 14/14/14
f 12/12/12 11/11/11 13/13/13
f 9/9/9 13/13/13 11/11/11
f 16/16/16 18/18/18 17/17/17 15/15/15
f 20/20/20 24/24/24 19/19/19
f 23/23/23 19/19/19 24/24/24
f 22/22/22 21/21/21 23/23/23
f 19/19/19 23/23/23 21/21/21
f 26/26/26 28/28/28 27/27/27 25/25/25
f 30/30/30 32/32/32 31/31/31 29/29/29
f 39/39/39 38/38/38 33/33/33
f 40/40/40 39/39/39 34/34/34
f 33/33/33 34/34/34 39/39/39
f 40/40/40 35/35/35 37/37/37
f 34/34/34 36/36/36 40/40/40
f 35/35/35 40/40/40 36/36/36
f 45/45/45 41/41/41 42/42/42 48/48/48
f 44/44/44 46/46/46 48/48/48 42/42/42
f 46/46/46 44/44/44 43/43/43 47/47/47
f 50/50/50 52/52/52 51/51/51 49/49/49
f 57/57/57 53/53/53 54/54/54 58/58/58
f 56/56/56 58/58/58 54/54/54
f 59/59/59 55/55/55 60/60/60
f 58/58/58 56/56/56 59/59/59
f 55/55/55 59/59/59 56/56/56
f 62/62/62 64/64/64 63/63/63 61/61/61
f 66/66/66 65/65/65 69/69/69
f 65/65/65 67/67/67 72/72/72 69/69/69
f 68/68/68 66/66/66 70/70/70 71/71/71
f 69/69/69 70/70/70 66/66/66
f 71/71/71 72/72/72 67/67/67 68/68/68
f 74/74/74 78/78/78 73/73/73
f 76/76/76 79/79/79 77/77/77 80/80/80
f 79/79/79 78/78/78 77/77/77
f 78/78/78 74/74/74 77/77/77
f 76/76/76 80/80/80 75/75/75
f 82/82/82 81/81/81 83/83/83 84/84/84
f 86/86/86 85/85/85 87/87/87 88/88/88
f 90/90/90 89/89/89 91/91/91 92/92/92
f 94/94/94 96/96/96 95/95/95 93/93/93
f 98/98/98 97/97/97 99/99/99 100/100/100
f 102/102/102 101/101/101 103/103/103 104/104/104
f 106/106/106 105/105/105 107/107/107 108/108/108
f 110/110/110 112/112/112 111/111/111 109/109/109
f 119/119/119 120/120/120 113/113/113
f 118/118/118 119/119/119 114/114/114
f 113/113/113 114/114/114 119/119/119
f 118/118/118 115/115/115 117/117/117
f 114/114/114 116/116/116 118/118/118
f 115/115/115 118/118/118 116/116/116
usemtl diffuse_ControlText
v 90 10 -28.108396530151367
v 90 10 -80.876304626464844
v 100 10 -28.108396530151367
v 100 10 -80.876304626464844
vt 0 0
vt 0 1
vt 1 0
vt 1 1
vn 0 1 0
vn 0 1 0
vn 0 1 0
vn 0 1 0
f 124/124/124 122/122/122 121/121/121 123/123/123
usemtl diffuse_ControlText
v -183.77072143554688 10 21.979986190795898
v -183.77072143554688 10 -37.351181030273438
v -173.77072143554688 10 21.979986190795898
v -173.77072143554688 10 -37.351181030273438
vt 0 0
vt 0 1
vt 1 0
vt 1 1
vn 0 1 0
vn 0 1 0
vn 0 1 0
vn 0 1 0
f 128/128/128 126/126/126 125/125/125 127/127/127
usemtl diffuse_ControlText
v -183.77072143554688 0 84.170692443847656
v -183.77072143554688 0 -100
v 100 0 84.170692443847656
v 100 0 -100
vt 0 0
vt 0 1
vt 1 0
vt 1 1
vn 0 1 0
vn 0 1 0
vn 0 1 0
vn 0 1 0
f 132/132/132 130/130/130 129/129/129 131/131/131
usemtl diffuse_ControlText
v 90 10 -28.108396010799584
v 100 10 -28.108396010799584
v 100 10 -80.876308301622686
v 90 10 -80.876308301622686
cstype bspline
deg 1
curv 0 125.53582458164621 133 134 135 136 133
parm u 0 0 10 62.767912290823105 72.767912290823105 125.53582458164621 125.53582458164621
end
usemtl diffuse_ControlText
v -183.77071818999138 0 84.170694563274822
v 100 0 84.170694563274822
v 100 0 -100
v -183.77071818999138 0 -100
cstype bspline
deg 1
curv 0 935.8828255065323 137 138 139 140 137
parm u 0 0 283.77071818999138 467.94141275326621 751.71213094325753 935.8828255065323 935.8828255065323
end
